# xmcd
#
# Track frame offsets: 
#        150
#        14637
#        27502
#        50157
#        63935
#        74367
#        89182
#        102450
#        114150
#        130412
#        148297
#        163750
#        182962
#        199455
#        211315
#        220240
#        231680
#        245255
#        260065
#
# Disc length: 3687 seconds
#
# Revision: 0
# Processed by: cddbd v1.5.2PL0 Copyright (c) Steve Scherf et al.
# Submitted via: ExactAudioCopy v1.0b3
#
DISCID=3f0e6513
DTITLE=Canned Heat - Essential
DYEAR=2012
DGENRE=Blues
TTITLE0=LET'S WORK TOGETHER
TTITLE1=GOING UP THE COUNTRY
TTITLE2=ON THE ROAD AGAIN
TTITLE3=ROLLIN' AND TUMBLIN'
TTITLE4=BULLFROG BLUES
TTITLE5=DUST MY BROOM
TTITLE6=I'M HER MAN
TTITLE7=SUGAR BEE
TTITLE8=TIME WAS
TTITLE9=AMPHETAMINE ANNIE
TTITLE10=WORLD IN A JUG
TTITLE11=THAT'S ALL RIGHT MAMA
TTITLE12=THE HUNTER
TTITLE13=SIC'EM PIGS
TTITLE14=BIG FAT (THE FAT MAN)
TTITLE15=WALKING BY MYSELF
TTITLE16=FUTURE BLUES
TTITLE17=ROCKIN' WITH THE KING (WITH LITTLE RICHARD)
TTITLE18=THE STORY OF MY LIFE
EXTD=
EXTT0=
EXTT1=
EXTT2=
EXTT3=
EXTT4=
EXTT5=
EXTT6=
EXTT7=
EXTT8=
EXTT9=
EXTT10=
EXTT11=
EXTT12=
EXTT13=
EXTT14=
EXTT15=
EXTT16=
EXTT17=
EXTT18=
PLAYORDER=
